# Blender 4.0.2
# www.blender.org
mtllib coconut.mtl
o Sphere
v 0.000000 0.622656 -0.500000
v 0.000000 0.500000 -0.866025
v 0.000000 -0.500000 -0.866025
v 0.390916 0.622656 -0.311745
v 0.677086 0.500000 -0.539958
v 0.781832 0.000000 -0.623490
v 0.677086 -0.500000 -0.539958
v 0.390916 -0.866025 -0.311745
v 0.000000 0.732816 0.000000
v 0.487464 0.622656 0.111260
v 0.844312 0.500000 0.192709
v 0.974928 0.000000 0.222521
v 0.844312 -0.500000 0.192709
v 0.487464 -0.806271 0.111260
v 0.216942 0.622656 0.450484
v 0.375754 0.500000 0.780262
v 0.433884 0.000000 0.900969
v 0.375754 -0.500000 0.780262
v 0.216942 -0.866025 0.450484
v -0.216942 0.622656 0.450484
v -0.375754 0.500000 0.780262
v -0.433884 0.000000 0.900969
v -0.375754 -0.500000 0.780262
v -0.216942 -0.866025 0.450484
v -0.487464 0.622656 0.111260
v -0.844312 0.500000 0.192709
v -0.974928 0.000000 0.222521
v -0.844312 -0.500000 0.192709
v -0.487464 -0.806271 0.111260
v -0.390916 0.622656 -0.311745
v -0.677086 0.500000 -0.539958
v -0.781831 0.000000 -0.623490
v -0.677086 -0.500000 -0.539958
v -0.390916 -0.806271 -0.311745
v 0.000000 0.000000 -1.000000
v 0.000000 -0.866025 -0.500000
v 0.000000 -0.853638 0.000000
vn 0.3223 -0.6694 -0.6694
vn 0.4218 0.2347 -0.8758
vn 0.1031 0.9714 -0.2140
vn -0.0119 -0.9996 0.0248
vn 0.4218 -0.2347 -0.8758
vn 0.1513 0.9373 -0.3141
vn 0.9477 0.2347 -0.2163
vn 0.2316 0.9714 -0.0529
vn 0.0678 -0.9899 0.1244
vn 0.9477 -0.2347 -0.2163
vn 0.3399 0.9373 -0.0776
vn 0.7034 -0.6999 -0.1243
vn 0.1857 0.9714 0.1481
vn 0.1151 -0.9899 -0.0826
vn 0.7600 -0.2347 0.6061
vn 0.2725 0.9373 0.2174
vn 0.5798 -0.6999 0.4172
vn 0.7600 0.2347 0.6061
vn -0.0000 -0.9996 -0.0275
vn -0.0000 -0.2347 0.9721
vn -0.0000 0.9373 0.3486
vn -0.0000 -0.6694 0.7429
vn -0.0000 0.2347 0.9721
vn -0.0000 0.9714 0.2375
vn -0.1151 -0.9899 -0.0826
vn -0.7600 -0.2347 0.6061
vn -0.2725 0.9373 0.2174
vn -0.5798 -0.6999 0.4172
vn -0.7600 0.2347 0.6061
vn -0.1857 0.9714 0.1481
vn -0.1020 -0.9945 -0.0233
vn -0.9477 -0.2347 -0.2163
vn -0.3399 0.9373 -0.0776
vn -0.6634 -0.7327 -0.1514
vn -0.9477 0.2347 -0.2163
vn -0.2316 0.9714 -0.0529
vn -0.4218 -0.2347 -0.8758
vn -0.1513 0.9373 -0.3141
vn -0.3413 -0.6999 -0.6274
vn -0.4218 0.2347 -0.8758
vn -0.1031 0.9714 -0.2140
vn -0.1395 -0.9899 0.0245
vn -0.0000 -1.0000 -0.0000
vt 0.714286 0.166667
vt 0.714286 0.333333
vt 0.571429 0.333333
vt 0.571429 0.166667
vt 0.714286 0.500000
vt 0.714286 0.666667
vt 0.571429 0.666667
vt 0.571429 0.500000
vt 0.714286 0.833333
vt 0.642857 1.000000
vt 0.571429 0.833333
vt 0.642857 0.000000
vt 0.428571 0.666667
vt 0.428571 0.500000
vt 0.500000 1.000000
vt 0.428571 0.833333
vt 0.500000 0.000000
vt 0.428571 0.166667
vt 0.428571 0.333333
vt 0.357143 1.000000
vt 0.285714 0.833333
vt 0.357143 0.000000
vt 0.285714 0.166667
vt 0.285714 0.500000
vt 0.285714 0.333333
vt 0.285714 0.666667
vt 0.214286 0.000000
vt 0.142857 0.166667
vt 0.142857 0.500000
vt 0.142857 0.333333
vt 0.142857 0.833333
vt 0.142857 0.666667
vt 0.214286 1.000000
vt 0.071429 0.000000
vt 0.000000 0.166667
vt 0.000000 0.500000
vt 0.000000 0.333333
vt 0.000000 0.833333
vt 0.000000 0.666667
vt 0.071429 1.000000
vt 0.928571 0.000000
vt 1.000000 0.166667
vt 0.857143 0.166667
vt 1.000000 0.333333
vt 1.000000 0.500000
vt 0.857143 0.500000
vt 0.857143 0.333333
vt 1.000000 0.666667
vt 1.000000 0.833333
vt 0.857143 0.833333
vt 0.857143 0.666667
vt 0.928571 1.000000
vt 0.785714 1.000000
vt 0.785714 0.000000
vt 0.000000 0.000000
s 0
f 36/1/1 3/2/1 7/3/1 8/4/1
f 35/5/2 2/6/2 5/7/2 6/8/2
f 1/9/3 9/10/3 4/11/3
f 37/12/4 36/1/4 8/4/4
f 3/2/5 35/5/5 6/8/5 7/3/5
f 2/6/6 1/9/6 4/11/6 5/7/6
f 6/8/7 5/7/7 11/13/7 12/14/7
f 4/11/8 9/15/8 10/16/8
f 37/17/9 8/4/9 14/18/9
f 7/3/10 6/8/10 12/14/10 13/19/10
f 5/7/11 4/11/11 10/16/11 11/13/11
f 8/4/12 7/3/12 13/19/12 14/18/12
f 10/16/13 9/20/13 15/21/13
f 37/22/14 14/18/14 19/23/14
f 13/19/15 12/14/15 17/24/15 18/25/15
f 11/13/16 10/16/16 15/21/16 16/26/16
f 14/18/17 13/19/17 18/25/17 19/23/17
f 12/14/18 11/13/18 16/26/18 17/24/18
f 37/27/19 19/23/19 24/28/19
f 18/25/20 17/24/20 22/29/20 23/30/20
f 16/26/21 15/21/21 20/31/21 21/32/21
f 19/23/22 18/25/22 23/30/22 24/28/22
f 17/24/23 16/26/23 21/32/23 22/29/23
f 15/21/24 9/33/24 20/31/24
f 37/34/25 24/28/25 29/35/25
f 23/30/26 22/29/26 27/36/26 28/37/26
f 21/32/27 20/31/27 25/38/27 26/39/27
f 24/28/28 23/30/28 28/37/28 29/35/28
f 22/29/29 21/32/29 26/39/29 27/36/29
f 20/31/30 9/40/30 25/38/30
f 37/41/31 29/42/31 34/43/31
f 28/44/32 27/45/32 32/46/32 33/47/32
f 26/48/33 25/49/33 30/50/33 31/51/33
f 29/42/34 28/44/34 33/47/34 34/43/34
f 27/45/35 26/48/35 31/51/35 32/46/35
f 25/49/36 9/52/36 30/50/36
f 33/47/37 32/46/37 35/5/37 3/2/37
f 31/51/38 30/50/38 1/9/38 2/6/38
f 34/43/39 33/47/39 3/2/39 36/1/39
f 32/46/40 31/51/40 2/6/40 35/5/40
f 30/50/41 9/53/41 1/9/41
f 37/54/42 34/43/42 36/1/42
f 34/43/43 14/55/43 29/42/43
