# Blender 3.6.5
# www.blender.org
o Cylinder
v 0.000000 -0.021752 -0.741443
v 6.175743 11.005830 -0.290000
v 0.524279 -0.021752 -0.524279
v 6.380804 11.005828 -0.205061
v 0.741442 -0.021752 0.000000
v 6.465743 11.005827 0.000000
v 0.524279 -0.021752 0.524279
v 6.380804 11.005828 0.205061
v 0.000000 -0.021752 0.741443
v 6.175743 11.005830 0.290000
v -0.524279 -0.021752 0.524279
v 5.970682 11.005832 0.205061
v -0.741442 -0.021752 0.000000
v 5.885743 11.005833 0.000000
v -0.524279 -0.021752 -0.524279
v 5.970682 11.005832 -0.205061
v 0.036291 0.839070 -0.669039
v 0.265458 1.677851 -0.290000
v 0.636270 2.461794 -0.290000
v 1.099958 3.192029 -0.290000
v 1.617441 3.884745 -0.290000
v 2.172065 4.547997 -0.290000
v 2.751731 5.189715 -0.290000
v 3.339312 5.824227 -0.290000
v 3.919657 6.465353 -0.290000
v 4.477252 7.125648 -0.290000
v 5.006774 7.809495 -0.290000
v 5.480880 8.533848 -0.290000
v 5.864619 9.312070 -0.290000
v 6.109275 10.145056 -0.290000
v 6.309366 10.104913 -0.205061
v 6.054856 9.238236 -0.205061
v 5.659577 8.434289 -0.205061
v 5.174633 7.691960 -0.205061
v 4.636511 6.996486 -0.205061
v 4.073726 6.330076 -0.205061
v 3.491011 5.686260 -0.205061
v 2.903678 5.052021 -0.205061
v 2.326887 4.413607 -0.205061
v 1.777809 3.757043 -0.205061
v 1.269088 3.076219 -0.205061
v 0.816658 2.365191 -0.205061
v 0.457353 1.608590 -0.205061
v 0.499581 0.759999 -0.473082
v 6.392245 10.088286 0.000000
v 6.133656 9.207654 0.000000
v 5.733596 8.393050 0.000000
v 5.244163 7.643276 0.000000
v 4.702479 6.942985 0.000000
v 4.137544 6.274042 0.000000
v 3.553847 5.629112 0.000000
v 2.966616 4.994986 0.000000
v 2.391016 4.357940 0.000000
v 1.844235 3.704147 0.000000
v 1.339144 3.028249 0.000000
v 0.891378 2.325176 0.000000
v 0.536838 1.579901 0.000000
v 0.691483 0.727246 -0.000000
v 6.309366 10.104913 0.205061
v 6.054856 9.238236 0.205061
v 5.659577 8.434289 0.205061
v 5.174633 7.691960 0.205061
v 4.636511 6.996486 0.205061
v 4.073726 6.330076 0.205061
v 3.491011 5.686260 0.205061
v 2.903678 5.052021 0.205061
v 2.326887 4.413607 0.205061
v 1.777809 3.757043 0.205061
v 1.269088 3.076219 0.205061
v 0.816658 2.365191 0.205061
v 0.457353 1.608590 0.205061
v 0.499581 0.759999 0.473082
v 6.109275 10.145056 0.290000
v 5.864618 9.312068 0.290000
v 5.480879 8.533847 0.290000
v 5.006774 7.809495 0.290000
v 4.477252 7.125648 0.290000
v 3.919657 6.465353 0.290000
v 3.339311 5.824227 0.290000
v 2.751731 5.189714 0.290000
v 2.172065 4.547996 0.290000
v 1.617441 3.884744 0.290000
v 1.099957 3.192029 0.290000
v 0.636270 2.461793 0.290000
v 0.265458 1.677851 0.290000
v 0.036291 0.839070 0.669039
v 5.909185 10.185199 0.205061
v 5.674379 9.385900 0.205061
v 5.302181 8.633406 0.205061
v 4.838914 7.927030 0.205061
v 4.317991 7.254809 0.205061
v 3.765588 6.600629 0.205061
v 3.187611 5.962194 0.205061
v 2.599784 5.327408 0.205061
v 2.017242 4.682386 0.205061
v 1.457074 4.012446 0.205061
v 0.930827 3.307838 0.205061
v 0.455881 2.558396 0.205061
v 0.073563 1.747112 0.205061
v -0.427000 0.918141 0.473082
v 5.826305 10.201826 0.000000
v 5.595581 9.416484 0.000000
v 5.228162 8.674644 0.000000
v 4.769385 7.975715 0.000000
v 4.252024 7.308310 0.000000
v 3.701770 6.656663 0.000000
v 3.124775 6.019342 0.000000
v 2.536845 5.384443 0.000000
v 1.953113 4.738052 0.000000
v 1.390647 4.065341 0.000000
v 0.860771 3.355808 0.000000
v 0.381161 2.598411 0.000000
v -0.005922 1.775801 0.000000
v -0.618901 0.950894 -0.000000
v 5.909185 10.185199 -0.205061
v 5.674379 9.385900 -0.205061
v 5.302181 8.633406 -0.205061
v 4.838914 7.927030 -0.205061
v 4.317991 7.254809 -0.205061
v 3.765588 6.600629 -0.205061
v 3.187611 5.962194 -0.205061
v 2.599784 5.327408 -0.205061
v 2.017242 4.682386 -0.205061
v 1.457074 4.012446 -0.205061
v 0.930827 3.307838 -0.205061
v 0.455881 2.558396 -0.205061
v 0.073563 1.747112 -0.205061
v -0.427000 0.918141 -0.473082
vn 0.3840 -0.0301 -0.9229
vn 0.9220 -0.0735 -0.3802
vn 0.9220 -0.0735 0.3802
vn 0.3840 -0.0301 0.9229
vn -0.3841 0.0292 0.9228
vn -0.9224 0.0687 0.3802
vn -0.0000 1.0000 -0.0000
vn -0.9224 0.0687 -0.3802
vn -0.3841 0.0292 -0.9228
vn -0.0000 -1.0000 -0.0000
vn -0.3781 0.0913 -0.9213
vn -0.2649 0.4473 -0.8542
vn -0.3480 0.1643 -0.9230
vn -0.3240 0.2055 -0.9235
vn -0.3069 0.2292 -0.9237
vn -0.2937 0.2456 -0.9238
vn -0.2840 0.2566 -0.9238
vn -0.2808 0.2600 -0.9239
vn -0.2837 0.2569 -0.9239
vn -0.2925 0.2470 -0.9238
vn -0.3028 0.2346 -0.9237
vn -0.3209 0.2103 -0.9235
vn -0.3450 0.1704 -0.9230
vn -0.3699 0.1086 -0.9227
vn -0.9177 0.1156 -0.3802
vn -0.7495 0.5615 -0.3508
vn -0.8366 0.3940 -0.3806
vn -0.7808 0.4946 -0.3817
vn -0.7403 0.5529 -0.3824
vn -0.7088 0.5927 -0.3825
vn -0.6857 0.6192 -0.3826
vn -0.6779 0.6277 -0.3827
vn -0.6849 0.6201 -0.3826
vn -0.7059 0.5961 -0.3826
vn -0.7303 0.5661 -0.3823
vn -0.7728 0.5071 -0.3817
vn -0.8288 0.4102 -0.3806
vn -0.8875 0.2607 -0.3799
vn -0.9177 0.1156 0.3802
vn -0.7495 0.5615 0.3508
vn -0.8366 0.3940 0.3806
vn -0.7808 0.4946 0.3817
vn -0.7403 0.5529 0.3824
vn -0.7088 0.5927 0.3825
vn -0.6857 0.6192 0.3826
vn -0.6779 0.6277 0.3827
vn -0.6849 0.6201 0.3826
vn -0.7059 0.5961 0.3826
vn -0.7303 0.5661 0.3823
vn -0.7728 0.5071 0.3817
vn -0.8288 0.4102 0.3806
vn -0.8875 0.2607 0.3799
vn -0.3781 0.0913 0.9213
vn -0.2649 0.4473 0.8542
vn -0.3480 0.1643 0.9230
vn -0.3240 0.2055 0.9235
vn -0.3069 0.2292 0.9237
vn -0.2937 0.2456 0.9238
vn -0.2840 0.2566 0.9238
vn -0.2808 0.2600 0.9239
vn -0.2837 0.2569 0.9239
vn -0.2925 0.2470 0.9238
vn -0.3028 0.2346 0.9237
vn -0.3209 0.2103 0.9235
vn -0.3450 0.1704 0.9230
vn -0.3699 0.1086 0.9227
vn 0.3896 0.0664 0.9186
vn 0.4312 0.2810 0.8574
vn 0.3477 -0.1648 0.9230
vn 0.3238 -0.2058 0.9235
vn 0.3068 -0.2292 0.9237
vn 0.2937 -0.2456 0.9238
vn 0.2840 -0.2566 0.9238
vn 0.2808 -0.2600 0.9239
vn 0.2838 -0.2568 0.9239
vn 0.2924 -0.2470 0.9238
vn 0.3029 -0.2345 0.9237
vn 0.3211 -0.2100 0.9235
vn 0.3451 -0.1699 0.9230
vn 0.3699 -0.1086 0.9227
vn 0.9243 0.0577 0.3772
vn 0.9211 0.1623 0.3539
vn 0.8352 -0.3970 0.3805
vn 0.7797 -0.4963 0.3817
vn 0.7402 -0.5531 0.3824
vn 0.7088 -0.5927 0.3825
vn 0.6855 -0.6194 0.3826
vn 0.6779 -0.6277 0.3827
vn 0.6850 -0.6200 0.3826
vn 0.7059 -0.5961 0.3826
vn 0.7308 -0.5654 0.3823
vn 0.7739 -0.5054 0.3817
vn 0.8299 -0.4078 0.3807
vn 0.8876 -0.2606 0.3799
vn 0.9243 0.0577 -0.3772
vn 0.9211 0.1623 -0.3539
vn 0.8352 -0.3970 -0.3805
vn 0.7797 -0.4963 -0.3817
vn 0.7402 -0.5531 -0.3824
vn 0.7088 -0.5927 -0.3825
vn 0.6855 -0.6194 -0.3826
vn 0.6779 -0.6277 -0.3827
vn 0.6850 -0.6200 -0.3826
vn 0.7059 -0.5961 -0.3826
vn 0.7308 -0.5654 -0.3823
vn 0.7739 -0.5054 -0.3817
vn 0.8299 -0.4078 -0.3807
vn 0.8876 -0.2606 -0.3799
vn 0.3896 0.0664 -0.9186
vn 0.4312 0.2810 -0.8574
vn 0.3477 -0.1648 -0.9230
vn 0.3238 -0.2058 -0.9235
vn 0.3068 -0.2292 -0.9237
vn 0.2937 -0.2456 -0.9238
vn 0.2840 -0.2566 -0.9238
vn 0.2808 -0.2600 -0.9239
vn 0.2838 -0.2568 -0.9239
vn 0.2924 -0.2470 -0.9238
vn 0.3029 -0.2345 -0.9237
vn 0.3211 -0.2100 -0.9235
vn 0.3451 -0.1699 -0.9230
vn 0.3699 -0.1086 -0.9227
vt 1.000000 0.966667
vt 1.000000 1.000000
vt 0.875000 1.000000
vt 0.875000 0.966667
vt 0.750000 1.000000
vt 0.750000 0.966667
vt 0.625000 1.000000
vt 0.625000 0.966667
vt 0.500000 1.000000
vt 0.500000 0.966667
vt 0.375000 1.000000
vt 0.375000 0.966667
vt 0.250000 1.000000
vt 0.250000 0.966667
vt 0.419706 0.419706
vt 0.250000 0.490000
vt 0.080294 0.419706
vt 0.010000 0.250000
vt 0.080294 0.080294
vt 0.250000 0.010000
vt 0.419706 0.080294
vt 0.490000 0.250000
vt 0.125000 1.000000
vt 0.125000 0.966667
vt 0.000000 1.000000
vt 0.000000 0.966667
vt 0.750000 0.490000
vt 0.919706 0.419706
vt 0.990000 0.250000
vt 0.919706 0.080294
vt 0.750000 0.010000
vt 0.580294 0.080294
vt 0.510000 0.250000
vt 0.580294 0.419706
vt 0.125000 0.500000
vt 0.125000 0.533333
vt 0.000000 0.533333
vt 0.000000 0.500000
vt 0.125000 0.566667
vt 0.000000 0.566667
vt 0.125000 0.600000
vt 0.000000 0.600000
vt 0.125000 0.633333
vt 0.000000 0.633333
vt 0.125000 0.666667
vt 0.000000 0.666667
vt 0.125000 0.700000
vt 0.000000 0.700000
vt 0.125000 0.733333
vt 0.000000 0.733333
vt 0.125000 0.766667
vt 0.000000 0.766667
vt 0.125000 0.800000
vt 0.000000 0.800000
vt 0.125000 0.833333
vt 0.000000 0.833333
vt 0.125000 0.866667
vt 0.000000 0.866667
vt 0.125000 0.900000
vt 0.000000 0.900000
vt 0.125000 0.933333
vt 0.000000 0.933333
vt 0.250000 0.500000
vt 0.250000 0.533333
vt 0.250000 0.566667
vt 0.250000 0.600000
vt 0.250000 0.633333
vt 0.250000 0.666667
vt 0.250000 0.700000
vt 0.250000 0.733333
vt 0.250000 0.766667
vt 0.250000 0.800000
vt 0.250000 0.833333
vt 0.250000 0.866667
vt 0.250000 0.900000
vt 0.250000 0.933333
vt 0.375000 0.500000
vt 0.375000 0.533333
vt 0.375000 0.566667
vt 0.375000 0.600000
vt 0.375000 0.633333
vt 0.375000 0.666667
vt 0.375000 0.700000
vt 0.375000 0.733333
vt 0.375000 0.766667
vt 0.375000 0.800000
vt 0.375000 0.833333
vt 0.375000 0.866667
vt 0.375000 0.900000
vt 0.375000 0.933333
vt 0.500000 0.500000
vt 0.500000 0.533333
vt 0.500000 0.566667
vt 0.500000 0.600000
vt 0.500000 0.633333
vt 0.500000 0.666667
vt 0.500000 0.700000
vt 0.500000 0.733333
vt 0.500000 0.766667
vt 0.500000 0.800000
vt 0.500000 0.833333
vt 0.500000 0.866667
vt 0.500000 0.900000
vt 0.500000 0.933333
vt 0.625000 0.500000
vt 0.625000 0.533333
vt 0.625000 0.566667
vt 0.625000 0.600000
vt 0.625000 0.633333
vt 0.625000 0.666667
vt 0.625000 0.700000
vt 0.625000 0.733333
vt 0.625000 0.766667
vt 0.625000 0.800000
vt 0.625000 0.833333
vt 0.625000 0.866667
vt 0.625000 0.900000
vt 0.625000 0.933333
vt 0.750000 0.500000
vt 0.750000 0.533333
vt 0.750000 0.566667
vt 0.750000 0.600000
vt 0.750000 0.633333
vt 0.750000 0.666667
vt 0.750000 0.700000
vt 0.750000 0.733333
vt 0.750000 0.766667
vt 0.750000 0.800000
vt 0.750000 0.833333
vt 0.750000 0.866667
vt 0.750000 0.900000
vt 0.750000 0.933333
vt 0.875000 0.500000
vt 0.875000 0.533333
vt 0.875000 0.566667
vt 0.875000 0.600000
vt 0.875000 0.633333
vt 0.875000 0.666667
vt 0.875000 0.700000
vt 0.875000 0.733333
vt 0.875000 0.766667
vt 0.875000 0.800000
vt 0.875000 0.833333
vt 0.875000 0.866667
vt 0.875000 0.900000
vt 0.875000 0.933333
vt 1.000000 0.500000
vt 1.000000 0.533333
vt 1.000000 0.566667
vt 1.000000 0.600000
vt 1.000000 0.633333
vt 1.000000 0.666667
vt 1.000000 0.700000
vt 1.000000 0.733333
vt 1.000000 0.766667
vt 1.000000 0.800000
vt 1.000000 0.833333
vt 1.000000 0.866667
vt 1.000000 0.900000
vt 1.000000 0.933333
s 0
f 30/1/1 2/2/1 4/3/1 31/4/1
f 31/4/2 4/3/2 6/5/2 45/6/2
f 45/6/3 6/5/3 8/7/3 59/8/3
f 59/8/4 8/7/4 10/9/4 73/10/4
f 73/10/5 10/9/5 12/11/5 87/12/5
f 87/12/6 12/11/6 14/13/6 101/14/6
f 4/15/7 2/16/7 16/17/7 14/18/7 12/19/7 10/20/7 8/21/7 6/22/7
f 101/14/8 14/13/8 16/23/8 115/24/8
f 115/24/9 16/23/9 2/25/9 30/26/9
f 1/27/10 3/28/10 5/29/10 7/30/10 9/31/10 11/32/10 13/33/10 15/34/10
f 15/35/11 128/36/11 17/37/11 1/38/11
f 128/36/12 127/39/12 18/40/12 17/37/12
f 127/39/13 126/41/13 19/42/13 18/40/13
f 126/41/14 125/43/14 20/44/14 19/42/14
f 125/43/15 124/45/15 21/46/15 20/44/15
f 124/45/16 123/47/16 22/48/16 21/46/16
f 123/47/17 122/49/17 23/50/17 22/48/17
f 122/49/18 121/51/18 24/52/18 23/50/18
f 121/51/19 120/53/19 25/54/19 24/52/19
f 120/53/20 119/55/20 26/56/20 25/54/20
f 119/55/21 118/57/21 27/58/21 26/56/21
f 118/57/22 117/59/22 28/60/22 27/58/22
f 117/59/23 116/61/23 29/62/23 28/60/23
f 116/61/24 115/24/24 30/26/24 29/62/24
f 13/63/25 114/64/25 128/36/25 15/35/25
f 114/64/26 113/65/26 127/39/26 128/36/26
f 113/65/27 112/66/27 126/41/27 127/39/27
f 112/66/28 111/67/28 125/43/28 126/41/28
f 111/67/29 110/68/29 124/45/29 125/43/29
f 110/68/30 109/69/30 123/47/30 124/45/30
f 109/69/31 108/70/31 122/49/31 123/47/31
f 108/70/32 107/71/32 121/51/32 122/49/32
f 107/71/33 106/72/33 120/53/33 121/51/33
f 106/72/34 105/73/34 119/55/34 120/53/34
f 105/73/35 104/74/35 118/57/35 119/55/35
f 104/74/36 103/75/36 117/59/36 118/57/36
f 103/75/37 102/76/37 116/61/37 117/59/37
f 102/76/38 101/14/38 115/24/38 116/61/38
f 11/77/39 100/78/39 114/64/39 13/63/39
f 100/78/40 99/79/40 113/65/40 114/64/40
f 99/79/41 98/80/41 112/66/41 113/65/41
f 98/80/42 97/81/42 111/67/42 112/66/42
f 97/81/43 96/82/43 110/68/43 111/67/43
f 96/82/44 95/83/44 109/69/44 110/68/44
f 95/83/45 94/84/45 108/70/45 109/69/45
f 94/84/46 93/85/46 107/71/46 108/70/46
f 93/85/47 92/86/47 106/72/47 107/71/47
f 92/86/48 91/87/48 105/73/48 106/72/48
f 91/87/49 90/88/49 104/74/49 105/73/49
f 90/88/50 89/89/50 103/75/50 104/74/50
f 89/89/51 88/90/51 102/76/51 103/75/51
f 88/90/52 87/12/52 101/14/52 102/76/52
f 9/91/53 86/92/53 100/78/53 11/77/53
f 86/92/54 85/93/54 99/79/54 100/78/54
f 85/93/55 84/94/55 98/80/55 99/79/55
f 84/94/56 83/95/56 97/81/56 98/80/56
f 83/95/57 82/96/57 96/82/57 97/81/57
f 82/96/58 81/97/58 95/83/58 96/82/58
f 81/97/59 80/98/59 94/84/59 95/83/59
f 80/98/60 79/99/60 93/85/60 94/84/60
f 79/99/61 78/100/61 92/86/61 93/85/61
f 78/100/62 77/101/62 91/87/62 92/86/62
f 77/101/63 76/102/63 90/88/63 91/87/63
f 76/102/64 75/103/64 89/89/64 90/88/64
f 75/103/65 74/104/65 88/90/65 89/89/65
f 74/104/66 73/10/66 87/12/66 88/90/66
f 7/105/67 72/106/67 86/92/67 9/91/67
f 72/106/68 71/107/68 85/93/68 86/92/68
f 71/107/69 70/108/69 84/94/69 85/93/69
f 70/108/70 69/109/70 83/95/70 84/94/70
f 69/109/71 68/110/71 82/96/71 83/95/71
f 68/110/72 67/111/72 81/97/72 82/96/72
f 67/111/73 66/112/73 80/98/73 81/97/73
f 66/112/74 65/113/74 79/99/74 80/98/74
f 65/113/75 64/114/75 78/100/75 79/99/75
f 64/114/76 63/115/76 77/101/76 78/100/76
f 63/115/77 62/116/77 76/102/77 77/101/77
f 62/116/78 61/117/78 75/103/78 76/102/78
f 61/117/79 60/118/79 74/104/79 75/103/79
f 60/118/80 59/8/80 73/10/80 74/104/80
f 5/119/81 58/120/81 72/106/81 7/105/81
f 58/120/82 57/121/82 71/107/82 72/106/82
f 57/121/83 56/122/83 70/108/83 71/107/83
f 56/122/84 55/123/84 69/109/84 70/108/84
f 55/123/85 54/124/85 68/110/85 69/109/85
f 54/124/86 53/125/86 67/111/86 68/110/86
f 53/125/87 52/126/87 66/112/87 67/111/87
f 52/126/88 51/127/88 65/113/88 66/112/88
f 51/127/89 50/128/89 64/114/89 65/113/89
f 50/128/90 49/129/90 63/115/90 64/114/90
f 49/129/91 48/130/91 62/116/91 63/115/91
f 48/130/92 47/131/92 61/117/92 62/116/92
f 47/131/93 46/132/93 60/118/93 61/117/93
f 46/132/94 45/6/94 59/8/94 60/118/94
f 3/133/95 44/134/95 58/120/95 5/119/95
f 44/134/96 43/135/96 57/121/96 58/120/96
f 43/135/97 42/136/97 56/122/97 57/121/97
f 42/136/98 41/137/98 55/123/98 56/122/98
f 41/137/99 40/138/99 54/124/99 55/123/99
f 40/138/100 39/139/100 53/125/100 54/124/100
f 39/139/101 38/140/101 52/126/101 53/125/101
f 38/140/102 37/141/102 51/127/102 52/126/102
f 37/141/103 36/142/103 50/128/103 51/127/103
f 36/142/104 35/143/104 49/129/104 50/128/104
f 35/143/105 34/144/105 48/130/105 49/129/105
f 34/144/106 33/145/106 47/131/106 48/130/106
f 33/145/107 32/146/107 46/132/107 47/131/107
f 32/146/108 31/4/108 45/6/108 46/132/108
f 1/147/109 17/148/109 44/134/109 3/133/109
f 17/148/110 18/149/110 43/135/110 44/134/110
f 18/149/111 19/150/111 42/136/111 43/135/111
f 19/150/112 20/151/112 41/137/112 42/136/112
f 20/151/113 21/152/113 40/138/113 41/137/113
f 21/152/114 22/153/114 39/139/114 40/138/114
f 22/153/115 23/154/115 38/140/115 39/139/115
f 23/154/116 24/155/116 37/141/116 38/140/116
f 24/155/117 25/156/117 36/142/117 37/141/117
f 25/156/118 26/157/118 35/143/118 36/142/118
f 26/157/119 27/158/119 34/144/119 35/143/119
f 27/158/120 28/159/120 33/145/120 34/144/120
f 28/159/121 29/160/121 32/146/121 33/145/121
f 29/160/122 30/1/122 31/4/122 32/146/122
