# Blender 4.0.2
# www.blender.org
mtllib palmtreesecattempt.mtl
o Cylinder
v 0.000000 0.006725 -0.741442
v 0.072836 8.807855 -4.803368
v 0.524279 0.006725 -0.524279
v 0.275440 8.803909 -4.712811
v 0.741443 0.006725 -0.000000
v 0.355400 8.770395 -4.508488
v 0.524279 0.006725 0.524279
v 0.265876 8.726945 -4.310089
v 0.000000 0.006725 0.741442
v 0.059310 8.699010 -4.233833
v -0.524279 0.006725 0.524279
v -0.143294 8.702955 -4.324390
v -0.741443 0.006725 0.000000
v -0.223253 8.736469 -4.528714
v -0.524279 0.006725 -0.524279
v -0.133729 8.779920 -4.727113
v 0.003620 0.564318 -0.684568
v 0.012945 1.235794 -0.488506
v 0.028279 1.809709 -0.768702
v 0.046291 2.355085 -1.118915
v 0.065450 2.882837 -1.512106
v 0.085087 3.396896 -1.936914
v 0.104207 3.900868 -2.382746
v 0.121761 4.405485 -2.836465
v 0.136607 4.921942 -3.285920
v 0.147495 5.461801 -3.717979
v 0.154084 6.032402 -4.128100
v 0.153150 6.651361 -4.487566
v 0.141071 7.332497 -4.754858
v 0.114201 8.066802 -4.871311
v 0.316303 8.080795 -4.781066
v 0.343014 7.361952 -4.668076
v 0.355209 6.692406 -4.405631
v 0.356437 6.081014 -4.050994
v 0.350210 5.514764 -3.644728
v 0.339678 4.976725 -3.215040
v 0.325156 4.460666 -2.766823
v 0.307890 3.955288 -2.313353
v 0.289020 3.449428 -1.866820
v 0.269593 2.932264 -1.440387
v 0.250596 2.399582 -1.044488
v 0.232715 1.846695 -0.690741
v 0.217524 1.262306 -0.406963
v 0.476089 0.594646 -0.490571
v 0.394755 8.094931 -4.575274
v 0.420850 7.418279 -4.469567
v 0.433176 6.781323 -4.218607
v 0.435038 6.192163 -3.875916
v 0.429657 5.639669 -3.479359
v 0.419982 5.108608 -3.055648
v 0.406247 4.595693 -2.610450
v 0.389684 4.090343 -2.157362
v 0.371420 3.581478 -1.708638
v 0.352493 3.058044 -1.277444
v 0.333870 2.514179 -0.873698
v 0.316268 1.943073 -0.509533
v 0.301373 1.332194 -0.214764
v 0.670628 0.675426 -0.027113
v 0.303601 8.100928 -4.374486
v 0.328985 7.468481 -4.275616
v 0.341379 6.866026 -4.036052
v 0.343844 6.300740 -3.705424
v 0.339297 5.763350 -3.318744
v 0.330477 5.240335 -2.901113
v 0.317532 4.731471 -2.458946
v 0.301673 4.226918 -2.006151
v 0.284016 3.715693 -1.555026
v 0.265590 3.186498 -1.118728
v 0.247332 2.631746 -0.706590
v 0.229994 2.042385 -0.331227
v 0.215375 1.404519 -0.024495
v 0.473279 0.759341 0.434319
v 0.096238 8.095276 -4.296320
v 0.121232 7.483150 -4.199836
v 0.133592 6.896895 -3.964903
v 0.136274 6.343142 -3.639390
v 0.132061 5.813354 -3.256968
v 0.123596 5.294743 -2.841960
v 0.110979 4.788460 -2.401060
v 0.095415 4.285010 -1.948296
v 0.078010 3.773452 -1.495970
v 0.059789 3.242378 -1.057213
v 0.041675 2.683415 -0.641053
v 0.024431 2.086456 -0.260273
v 0.009905 1.436912 0.052386
v -0.000354 0.797234 0.623424
v -0.105865 8.081283 -4.386566
v -0.080711 7.453694 -4.286618
v -0.068466 6.855850 -4.046839
v -0.066078 6.294530 -3.716496
v -0.070653 5.760391 -3.330219
v -0.079475 5.239960 -2.912839
v -0.092416 4.733279 -2.470701
v -0.108268 4.230590 -2.017689
v -0.125923 3.720920 -1.566062
v -0.144354 3.192951 -1.128932
v -0.162630 2.638918 -0.715479
v -0.180005 2.049469 -0.338234
v -0.194674 1.410399 -0.029157
v -0.472822 0.766906 0.429427
v -0.184317 8.067147 -4.592358
v -0.158548 7.397367 -4.485126
v -0.146433 6.766933 -4.233862
v -0.144679 6.183381 -3.891574
v -0.150100 5.635485 -3.495588
v -0.159779 5.108077 -3.072231
v -0.173507 4.598251 -2.627074
v -0.190062 4.095535 -2.173680
v -0.208322 3.588870 -1.724245
v -0.227255 3.067170 -1.291875
v -0.245904 2.524321 -0.886270
v -0.263558 1.953092 -0.519442
v -0.278523 1.340511 -0.221357
v -0.667362 0.686125 -0.034031
v -0.093163 8.061150 -4.793146
v -0.066683 7.347166 -4.679077
v -0.054637 6.682230 -4.416417
v -0.053485 6.074804 -4.062067
v -0.059740 5.511805 -3.656203
v -0.070275 4.976349 -3.226766
v -0.084792 4.462474 -2.778578
v -0.102052 3.958960 -2.324891
v -0.120919 3.454655 -1.877857
v -0.140351 2.938717 -1.450591
v -0.159366 2.406754 -1.053378
v -0.177284 1.853779 -0.697748
v -0.192525 1.268188 -0.411625
v -0.470013 0.602211 -0.495463
vn 0.4033 0.1072 -0.9088
vn 0.9306 0.0877 -0.3553
vn 0.9105 0.0123 0.4133
vn 0.3539 -0.0747 0.9323
vn -0.4027 -0.1168 0.9079
vn -0.9305 -0.0897 0.3552
vn -0.0640 0.9805 0.1859
vn -0.9105 -0.0135 -0.4134
vn -0.3535 0.0658 -0.9331
vn -0.0000 -1.0000 -0.0000
vn -0.3728 0.0874 -0.9238
vn -0.3286 0.2605 -0.9078
vn -0.3752 -0.3988 -0.8368
vn -0.3753 -0.4924 -0.7853
vn -0.3742 -0.5457 -0.7498
vn -0.3723 -0.5832 -0.7220
vn -0.3701 -0.6080 -0.7024
vn -0.3671 -0.6153 -0.6976
vn -0.3636 -0.6060 -0.7075
vn -0.3597 -0.5790 -0.7317
vn -0.3554 -0.5434 -0.7605
vn -0.3504 -0.4716 -0.8092
vn -0.3462 -0.3490 -0.8708
vn -0.3463 -0.1599 -0.9244
vn -0.9152 0.0905 -0.3926
vn -0.8135 0.3758 -0.4438
vn -0.9207 -0.1521 -0.3595
vn -0.9206 -0.1901 -0.3412
vn -0.9200 -0.2133 -0.3287
vn -0.9192 -0.2305 -0.3192
vn -0.9183 -0.2432 -0.3124
vn -0.9171 -0.2495 -0.3109
vn -0.9157 -0.2496 -0.3150
vn -0.9141 -0.2431 -0.3247
vn -0.9123 -0.2333 -0.3366
vn -0.9102 -0.2107 -0.3564
vn -0.9084 -0.1687 -0.3826
vn -0.9081 -0.0994 -0.4069
vn -0.9203 0.1138 0.3743
vn -0.8167 0.5315 0.2246
vn -0.9249 0.1834 0.3330
vn -0.9258 0.2234 0.3049
vn -0.9267 0.2443 0.2854
vn -0.9276 0.2574 0.2708
vn -0.9286 0.2640 0.2608
vn -0.9298 0.2625 0.2579
vn -0.9313 0.2531 0.2620
vn -0.9328 0.2353 0.2728
vn -0.9342 0.2146 0.2849
vn -0.9352 0.1768 0.3067
vn -0.9353 0.1152 0.3346
vn -0.9337 0.0204 0.3574
vn -0.3813 0.1380 0.9141
vn -0.3365 0.6342 0.6961
vn -0.3860 0.4080 0.8274
vn -0.3881 0.5042 0.7714
vn -0.3903 0.5584 0.7320
vn -0.3924 0.5942 0.7021
vn -0.3949 0.6165 0.6812
vn -0.3979 0.6207 0.6756
vn -0.4013 0.6076 0.6854
vn -0.4051 0.5757 0.7102
vn -0.4086 0.5367 0.7382
vn -0.4114 0.4607 0.7864
vn -0.4122 0.3316 0.8486
vn -0.4095 0.1266 0.9035
vn 0.3780 0.1360 0.9158
vn 0.3395 0.6273 0.7009
vn 0.3751 0.3950 0.8386
vn 0.3753 0.4904 0.7866
vn 0.3742 0.5455 0.7499
vn 0.3723 0.5831 0.7221
vn 0.3700 0.6079 0.7025
vn 0.3671 0.6153 0.6976
vn 0.3636 0.6062 0.7074
vn 0.3597 0.5790 0.7317
vn 0.3554 0.5446 0.7597
vn 0.3504 0.4749 0.8073
vn 0.3460 0.3540 0.8689
vn 0.3463 0.1591 0.9245
vn 0.9195 0.1099 0.3773
vn 0.8248 0.5142 0.2353
vn 0.9207 0.1515 0.3598
vn 0.9206 0.1898 0.3414
vn 0.9200 0.2132 0.3287
vn 0.9192 0.2304 0.3192
vn 0.9183 0.2432 0.3124
vn 0.9171 0.2495 0.3109
vn 0.9157 0.2497 0.3150
vn 0.9141 0.2431 0.3247
vn 0.9123 0.2335 0.3365
vn 0.9102 0.2112 0.3562
vn 0.9083 0.1694 0.3824
vn 0.9081 0.0993 0.4069
vn 0.9168 0.0889 -0.3894
vn 0.8270 0.3580 -0.4334
vn 0.9249 -0.1843 -0.3326
vn 0.9258 -0.2238 -0.3046
vn 0.9267 -0.2444 -0.2854
vn 0.9276 -0.2574 -0.2708
vn 0.9286 -0.2641 -0.2608
vn 0.9298 -0.2625 -0.2579
vn 0.9313 -0.2531 -0.2621
vn 0.9328 -0.2354 -0.2728
vn 0.9342 -0.2143 -0.2851
vn 0.9352 -0.1760 -0.3071
vn 0.9353 -0.1141 -0.3350
vn 0.9337 -0.0207 -0.3574
vn 0.3776 0.0876 -0.9218
vn 0.3464 0.2531 -0.9033
vn 0.3859 -0.4121 -0.8254
vn 0.3880 -0.5063 -0.7701
vn 0.3903 -0.5586 -0.7318
vn 0.3924 -0.5943 -0.7020
vn 0.3949 -0.6167 -0.6810
vn 0.3979 -0.6206 -0.6757
vn 0.4013 -0.6074 -0.6855
vn 0.4051 -0.5758 -0.7102
vn 0.4086 -0.5354 -0.7392
vn 0.4114 -0.4570 -0.7886
vn 0.4122 -0.3262 -0.8507
vn 0.4095 -0.1275 -0.9033
vt 1.000000 0.966667
vt 1.000000 1.000000
vt 0.875000 1.000000
vt 0.875000 0.966667
vt 0.750000 1.000000
vt 0.750000 0.966667
vt 0.625000 1.000000
vt 0.625000 0.966667
vt 0.500000 1.000000
vt 0.500000 0.966667
vt 0.375000 1.000000
vt 0.375000 0.966667
vt 0.250000 1.000000
vt 0.250000 0.966667
vt 0.419706 0.419706
vt 0.250000 0.490000
vt 0.080294 0.419706
vt 0.010000 0.250000
vt 0.080294 0.080294
vt 0.250000 0.010000
vt 0.419706 0.080294
vt 0.490000 0.250000
vt 0.125000 1.000000
vt 0.125000 0.966667
vt 0.000000 1.000000
vt 0.000000 0.966667
vt 0.750000 0.490000
vt 0.919706 0.419706
vt 0.990000 0.250000
vt 0.919706 0.080294
vt 0.750000 0.010000
vt 0.580294 0.080294
vt 0.510000 0.250000
vt 0.580294 0.419706
vt 0.125000 0.500000
vt 0.125000 0.533333
vt 0.000000 0.533333
vt 0.000000 0.500000
vt 0.125000 0.566667
vt 0.000000 0.566667
vt 0.125000 0.600000
vt 0.000000 0.600000
vt 0.125000 0.633333
vt 0.000000 0.633333
vt 0.125000 0.666667
vt 0.000000 0.666667
vt 0.125000 0.700000
vt 0.000000 0.700000
vt 0.125000 0.733333
vt 0.000000 0.733333
vt 0.125000 0.766667
vt 0.000000 0.766667
vt 0.125000 0.800000
vt 0.000000 0.800000
vt 0.125000 0.833333
vt 0.000000 0.833333
vt 0.125000 0.866667
vt 0.000000 0.866667
vt 0.125000 0.900000
vt 0.000000 0.900000
vt 0.125000 0.933333
vt 0.000000 0.933333
vt 0.250000 0.500000
vt 0.250000 0.533333
vt 0.250000 0.566667
vt 0.250000 0.600000
vt 0.250000 0.633333
vt 0.250000 0.666667
vt 0.250000 0.700000
vt 0.250000 0.733333
vt 0.250000 0.766667
vt 0.250000 0.800000
vt 0.250000 0.833333
vt 0.250000 0.866667
vt 0.250000 0.900000
vt 0.250000 0.933333
vt 0.375000 0.500000
vt 0.375000 0.533333
vt 0.375000 0.566667
vt 0.375000 0.600000
vt 0.375000 0.633333
vt 0.375000 0.666667
vt 0.375000 0.700000
vt 0.375000 0.733333
vt 0.375000 0.766667
vt 0.375000 0.800000
vt 0.375000 0.833333
vt 0.375000 0.866667
vt 0.375000 0.900000
vt 0.375000 0.933333
vt 0.500000 0.500000
vt 0.500000 0.533333
vt 0.500000 0.566667
vt 0.500000 0.600000
vt 0.500000 0.633333
vt 0.500000 0.666667
vt 0.500000 0.700000
vt 0.500000 0.733333
vt 0.500000 0.766667
vt 0.500000 0.800000
vt 0.500000 0.833333
vt 0.500000 0.866667
vt 0.500000 0.900000
vt 0.500000 0.933333
vt 0.625000 0.500000
vt 0.625000 0.533333
vt 0.625000 0.566667
vt 0.625000 0.600000
vt 0.625000 0.633333
vt 0.625000 0.666667
vt 0.625000 0.700000
vt 0.625000 0.733333
vt 0.625000 0.766667
vt 0.625000 0.800000
vt 0.625000 0.833333
vt 0.625000 0.866667
vt 0.625000 0.900000
vt 0.625000 0.933333
vt 0.750000 0.500000
vt 0.750000 0.533333
vt 0.750000 0.566667
vt 0.750000 0.600000
vt 0.750000 0.633333
vt 0.750000 0.666667
vt 0.750000 0.700000
vt 0.750000 0.733333
vt 0.750000 0.766667
vt 0.750000 0.800000
vt 0.750000 0.833333
vt 0.750000 0.866667
vt 0.750000 0.900000
vt 0.750000 0.933333
vt 0.875000 0.500000
vt 0.875000 0.533333
vt 0.875000 0.566667
vt 0.875000 0.600000
vt 0.875000 0.633333
vt 0.875000 0.666667
vt 0.875000 0.700000
vt 0.875000 0.733333
vt 0.875000 0.766667
vt 0.875000 0.800000
vt 0.875000 0.833333
vt 0.875000 0.866667
vt 0.875000 0.900000
vt 0.875000 0.933333
vt 1.000000 0.500000
vt 1.000000 0.533333
vt 1.000000 0.566667
vt 1.000000 0.600000
vt 1.000000 0.633333
vt 1.000000 0.666667
vt 1.000000 0.700000
vt 1.000000 0.733333
vt 1.000000 0.766667
vt 1.000000 0.800000
vt 1.000000 0.833333
vt 1.000000 0.866667
vt 1.000000 0.900000
vt 1.000000 0.933333
s 0
f 30/1/1 2/2/1 4/3/1 31/4/1
f 31/4/2 4/3/2 6/5/2 45/6/2
f 45/6/3 6/5/3 8/7/3 59/8/3
f 59/8/4 8/7/4 10/9/4 73/10/4
f 73/10/5 10/9/5 12/11/5 87/12/5
f 87/12/6 12/11/6 14/13/6 101/14/6
f 4/15/7 2/16/7 16/17/7 14/18/7 12/19/7 10/20/7 8/21/7 6/22/7
f 101/14/8 14/13/8 16/23/8 115/24/8
f 115/24/9 16/23/9 2/25/9 30/26/9
f 1/27/10 3/28/10 5/29/10 7/30/10 9/31/10 11/32/10 13/33/10 15/34/10
f 15/35/11 128/36/11 17/37/11 1/38/11
f 128/36/12 127/39/12 18/40/12 17/37/12
f 127/39/13 126/41/13 19/42/13 18/40/13
f 126/41/14 125/43/14 20/44/14 19/42/14
f 125/43/15 124/45/15 21/46/15 20/44/15
f 124/45/16 123/47/16 22/48/16 21/46/16
f 123/47/17 122/49/17 23/50/17 22/48/17
f 122/49/18 121/51/18 24/52/18 23/50/18
f 121/51/19 120/53/19 25/54/19 24/52/19
f 120/53/20 119/55/20 26/56/20 25/54/20
f 119/55/21 118/57/21 27/58/21 26/56/21
f 118/57/22 117/59/22 28/60/22 27/58/22
f 117/59/23 116/61/23 29/62/23 28/60/23
f 116/61/24 115/24/24 30/26/24 29/62/24
f 13/63/25 114/64/25 128/36/25 15/35/25
f 114/64/26 113/65/26 127/39/26 128/36/26
f 113/65/27 112/66/27 126/41/27 127/39/27
f 112/66/28 111/67/28 125/43/28 126/41/28
f 111/67/29 110/68/29 124/45/29 125/43/29
f 110/68/30 109/69/30 123/47/30 124/45/30
f 109/69/31 108/70/31 122/49/31 123/47/31
f 108/70/32 107/71/32 121/51/32 122/49/32
f 107/71/33 106/72/33 120/53/33 121/51/33
f 106/72/34 105/73/34 119/55/34 120/53/34
f 105/73/35 104/74/35 118/57/35 119/55/35
f 104/74/36 103/75/36 117/59/36 118/57/36
f 103/75/37 102/76/37 116/61/37 117/59/37
f 102/76/38 101/14/38 115/24/38 116/61/38
f 11/77/39 100/78/39 114/64/39 13/63/39
f 100/78/40 99/79/40 113/65/40 114/64/40
f 99/79/41 98/80/41 112/66/41 113/65/41
f 98/80/42 97/81/42 111/67/42 112/66/42
f 97/81/43 96/82/43 110/68/43 111/67/43
f 96/82/44 95/83/44 109/69/44 110/68/44
f 95/83/45 94/84/45 108/70/45 109/69/45
f 94/84/46 93/85/46 107/71/46 108/70/46
f 93/85/47 92/86/47 106/72/47 107/71/47
f 92/86/48 91/87/48 105/73/48 106/72/48
f 91/87/49 90/88/49 104/74/49 105/73/49
f 90/88/50 89/89/50 103/75/50 104/74/50
f 89/89/51 88/90/51 102/76/51 103/75/51
f 88/90/52 87/12/52 101/14/52 102/76/52
f 9/91/53 86/92/53 100/78/53 11/77/53
f 86/92/54 85/93/54 99/79/54 100/78/54
f 85/93/55 84/94/55 98/80/55 99/79/55
f 84/94/56 83/95/56 97/81/56 98/80/56
f 83/95/57 82/96/57 96/82/57 97/81/57
f 82/96/58 81/97/58 95/83/58 96/82/58
f 81/97/59 80/98/59 94/84/59 95/83/59
f 80/98/60 79/99/60 93/85/60 94/84/60
f 79/99/61 78/100/61 92/86/61 93/85/61
f 78/100/62 77/101/62 91/87/62 92/86/62
f 77/101/63 76/102/63 90/88/63 91/87/63
f 76/102/64 75/103/64 89/89/64 90/88/64
f 75/103/65 74/104/65 88/90/65 89/89/65
f 74/104/66 73/10/66 87/12/66 88/90/66
f 7/105/67 72/106/67 86/92/67 9/91/67
f 72/106/68 71/107/68 85/93/68 86/92/68
f 71/107/69 70/108/69 84/94/69 85/93/69
f 70/108/70 69/109/70 83/95/70 84/94/70
f 69/109/71 68/110/71 82/96/71 83/95/71
f 68/110/72 67/111/72 81/97/72 82/96/72
f 67/111/73 66/112/73 80/98/73 81/97/73
f 66/112/74 65/113/74 79/99/74 80/98/74
f 65/113/75 64/114/75 78/100/75 79/99/75
f 64/114/76 63/115/76 77/101/76 78/100/76
f 63/115/77 62/116/77 76/102/77 77/101/77
f 62/116/78 61/117/78 75/103/78 76/102/78
f 61/117/79 60/118/79 74/104/79 75/103/79
f 60/118/80 59/8/80 73/10/80 74/104/80
f 5/119/81 58/120/81 72/106/81 7/105/81
f 58/120/82 57/121/82 71/107/82 72/106/82
f 57/121/83 56/122/83 70/108/83 71/107/83
f 56/122/84 55/123/84 69/109/84 70/108/84
f 55/123/85 54/124/85 68/110/85 69/109/85
f 54/124/86 53/125/86 67/111/86 68/110/86
f 53/125/87 52/126/87 66/112/87 67/111/87
f 52/126/88 51/127/88 65/113/88 66/112/88
f 51/127/89 50/128/89 64/114/89 65/113/89
f 50/128/90 49/129/90 63/115/90 64/114/90
f 49/129/91 48/130/91 62/116/91 63/115/91
f 48/130/92 47/131/92 61/117/92 62/116/92
f 47/131/93 46/132/93 60/118/93 61/117/93
f 46/132/94 45/6/94 59/8/94 60/118/94
f 3/133/95 44/134/95 58/120/95 5/119/95
f 44/134/96 43/135/96 57/121/96 58/120/96
f 43/135/97 42/136/97 56/122/97 57/121/97
f 42/136/98 41/137/98 55/123/98 56/122/98
f 41/137/99 40/138/99 54/124/99 55/123/99
f 40/138/100 39/139/100 53/125/100 54/124/100
f 39/139/101 38/140/101 52/126/101 53/125/101
f 38/140/102 37/141/102 51/127/102 52/126/102
f 37/141/103 36/142/103 50/128/103 51/127/103
f 36/142/104 35/143/104 49/129/104 50/128/104
f 35/143/105 34/144/105 48/130/105 49/129/105
f 34/144/106 33/145/106 47/131/106 48/130/106
f 33/145/107 32/146/107 46/132/107 47/131/107
f 32/146/108 31/4/108 45/6/108 46/132/108
f 1/147/109 17/148/109 44/134/109 3/133/109
f 17/148/110 18/149/110 43/135/110 44/134/110
f 18/149/111 19/150/111 42/136/111 43/135/111
f 19/150/112 20/151/112 41/137/112 42/136/112
f 20/151/113 21/152/113 40/138/113 41/137/113
f 21/152/114 22/153/114 39/139/114 40/138/114
f 22/153/115 23/154/115 38/140/115 39/139/115
f 23/154/116 24/155/116 37/141/116 38/140/116
f 24/155/117 25/156/117 36/142/117 37/141/117
f 25/156/118 26/157/118 35/143/118 36/142/118
f 26/157/119 27/158/119 34/144/119 35/143/119
f 27/158/120 28/159/120 33/145/120 34/144/120
f 28/159/121 29/160/121 32/146/121 33/145/121
f 29/160/122 30/1/122 31/4/122 32/146/122
o Plane
v 3.388298 6.359118 -1.170335
v -0.481105 8.683275 -3.667886
v 4.453252 6.359120 -2.817312
v 0.587912 8.683275 -5.321144
v 3.039313 6.817028 -1.395992
v 2.683434 7.267846 -1.626107
v 2.313182 7.701207 -1.865517
v 1.921356 8.126203 -2.118709
v 1.485980 8.497354 -2.399641
v 1.021979 8.807351 -2.699035
v 0.512010 8.908714 -3.028133
v -0.006971 8.923819 -3.362742
v 1.060736 8.923819 -5.013973
v 1.578832 8.908714 -4.677994
v 2.088204 8.807351 -4.347972
v 2.551626 8.497353 -4.047683
v 2.986465 8.126203 -3.765922
v 3.378138 7.701208 -3.512493
v 3.748389 7.267845 -3.273084
v 4.104268 6.817029 -3.042969
vn 0.3295 -0.9198 0.2131
vn -0.6218 -0.6721 -0.4021
vn -0.6118 -0.6849 -0.3956
vn -0.5886 -0.7132 -0.3806
vn -0.5655 -0.7392 -0.3657
vn -0.4890 -0.8130 -0.3162
vn -0.4111 -0.8720 -0.2658
vn -0.1383 -0.9863 -0.0894
vn -0.0205 -0.9997 -0.0133
vt 0.888889 0.000000
vt 1.000000 0.000000
vt 1.000000 1.000000
vt 0.888889 1.000000
vt 0.000000 0.000000
vt 0.111111 0.000000
vt 0.111111 1.000000
vt 0.000000 1.000000
vt 0.222222 0.000000
vt 0.222222 1.000000
vt 0.333333 0.000000
vt 0.333333 1.000000
vt 0.444444 0.000000
vt 0.444444 1.000000
vt 0.555556 0.000000
vt 0.555556 1.000000
vt 0.666667 0.000000
vt 0.666667 1.000000
vt 0.777778 0.000000
vt 0.777778 1.000000
s 0
f 140/161/123 130/162/123 132/163/123 141/164/123
f 129/165/124 133/166/124 148/167/124 131/168/124
f 133/166/125 134/169/125 147/170/125 148/167/125
f 134/169/126 135/171/126 146/172/126 147/170/126
f 135/171/127 136/173/127 145/174/127 146/172/127
f 136/173/128 137/175/128 144/176/128 145/174/128
f 137/175/129 138/177/129 143/178/129 144/176/129
f 138/177/130 139/179/130 142/180/130 143/178/130
f 139/179/131 140/161/131 141/164/131 142/180/131
o Plane.001
v -3.265782 6.359117 -7.808537
v 0.603622 8.683275 -5.310986
v -4.330735 6.359119 -6.161560
v -0.465395 8.683275 -3.657728
v -2.916796 6.817024 -7.582880
v -2.560916 7.267841 -7.352764
v -2.190664 7.701205 -7.113355
v -1.798837 8.126201 -6.860163
v -1.363462 8.497351 -6.579231
v -0.899462 8.807350 -6.279837
v -0.389493 8.908713 -5.950738
v 0.129488 8.923819 -5.616129
v -0.938219 8.923818 -3.964899
v -1.456315 8.908713 -4.300879
v -1.965687 8.807349 -4.630900
v -2.429109 8.497351 -4.931190
v -2.863947 8.126201 -5.212950
v -3.255620 7.701205 -5.466379
v -3.625871 7.267842 -5.705788
v -3.981750 6.817027 -5.935903
vn -0.3295 -0.9198 -0.2131
vn 0.6218 -0.6721 0.4021
vn 0.6118 -0.6849 0.3956
vn 0.5886 -0.7132 0.3806
vn 0.5655 -0.7392 0.3657
vn 0.4890 -0.8130 0.3162
vn 0.4111 -0.8720 0.2658
vn 0.1383 -0.9863 0.0894
vn 0.0205 -0.9997 0.0133
vt 0.888889 0.000000
vt 1.000000 0.000000
vt 1.000000 1.000000
vt 0.888889 1.000000
vt 0.000000 0.000000
vt 0.111111 0.000000
vt 0.111111 1.000000
vt 0.000000 1.000000
vt 0.222222 0.000000
vt 0.222222 1.000000
vt 0.333333 0.000000
vt 0.333333 1.000000
vt 0.444444 0.000000
vt 0.444444 1.000000
vt 0.555556 0.000000
vt 0.555556 1.000000
vt 0.666667 0.000000
vt 0.666667 1.000000
vt 0.777778 0.000000
vt 0.777778 1.000000
s 0
f 160/181/132 150/182/132 152/183/132 161/184/132
f 149/185/133 153/186/133 168/187/133 151/188/133
f 153/186/134 154/189/134 167/190/134 168/187/134
f 154/189/135 155/191/135 166/192/135 167/190/135
f 155/191/136 156/193/136 165/194/136 166/192/136
f 156/193/137 157/195/137 164/196/137 165/194/137
f 157/195/138 158/197/138 163/198/138 164/196/138
f 158/197/139 159/199/139 162/200/139 163/198/139
f 159/199/140 160/181/140 161/184/140 162/200/140
o Plane.002
v -3.257844 6.359115 -1.162394
v -0.760291 8.683275 -5.031799
v -1.610866 6.359119 -0.097442
v 0.892967 8.683275 -3.962781
v -3.032186 6.817024 -1.511380
v -2.802070 7.267841 -1.867261
v -2.562661 7.701204 -2.237512
v -2.309469 8.126200 -2.629339
v -2.028537 8.497351 -3.064714
v -1.729142 8.807349 -3.528715
v -1.400044 8.908713 -4.038683
v -1.065435 8.923819 -4.557664
v 0.585795 8.923818 -3.489957
v 0.249816 8.908713 -2.971861
v -0.080206 8.807349 -2.462490
v -0.380495 8.497351 -1.999068
v -0.662256 8.126200 -1.564229
v -0.915685 7.701204 -1.172556
v -1.155094 7.267842 -0.802305
v -1.385209 6.817027 -0.446427
vn -0.2131 -0.9198 0.3295
vn 0.4021 -0.6721 -0.6218
vn 0.3956 -0.6849 -0.6118
vn 0.3806 -0.7132 -0.5886
vn 0.3657 -0.7392 -0.5655
vn 0.3162 -0.8130 -0.4890
vn 0.2658 -0.8720 -0.4111
vn 0.0894 -0.9863 -0.1383
vn 0.0133 -0.9997 -0.0205
vt 0.888889 0.000000
vt 1.000000 0.000000
vt 1.000000 1.000000
vt 0.888889 1.000000
vt 0.000000 0.000000
vt 0.111111 0.000000
vt 0.111111 1.000000
vt 0.000000 1.000000
vt 0.222222 0.000000
vt 0.222222 1.000000
vt 0.333333 0.000000
vt 0.333333 1.000000
vt 0.444444 0.000000
vt 0.444444 1.000000
vt 0.555556 0.000000
vt 0.555556 1.000000
vt 0.666667 0.000000
vt 0.666667 1.000000
vt 0.777778 0.000000
vt 0.777778 1.000000
s 0
f 180/201/141 170/202/141 172/203/141 181/204/141
f 169/205/142 173/206/142 188/207/142 171/208/142
f 173/206/143 174/209/143 187/210/143 188/207/143
f 174/209/144 175/211/144 186/212/144 187/210/144
f 175/211/145 176/213/145 185/214/145 186/212/145
f 176/213/146 177/215/146 184/216/146 185/214/146
f 177/215/147 178/217/147 183/218/147 184/216/147
f 178/217/148 179/219/148 182/220/148 183/218/148
f 179/219/149 180/201/149 181/204/149 182/220/149
o Plane.003
v 2.138054 5.789981 -7.021158
v 0.954435 8.689178 -3.917296
v 0.242751 5.993515 -8.016615
v -0.826994 8.689178 -5.069190
v 2.131067 6.304155 -6.896616
v 2.109273 6.802571 -6.711231
v 2.071881 7.294992 -6.489133
v 2.015880 7.787778 -6.213396
v 1.918375 8.244142 -5.865240
v 1.773740 8.648201 -5.439913
v 1.543565 8.836085 -4.935555
v 1.259013 8.891347 -4.387949
v -0.582229 8.912623 -5.451933
v -0.370838 8.887708 -5.880724
v -0.168663 8.769070 -6.325925
v -0.044635 8.428415 -6.707985
v 0.054086 8.012808 -7.061008
v 0.120612 7.541092 -7.358392
v 0.174166 7.052536 -7.615064
v 0.215341 6.534678 -7.844695
vn 0.1979 -0.9221 -0.3325
vn -0.4622 -0.2538 0.8497
vn -0.4403 -0.3627 0.8214
vn -0.4197 -0.4292 0.7998
vn -0.3970 -0.5056 0.7660
vn -0.3611 -0.6324 0.6853
vn -0.3169 -0.7474 0.5839
vn -0.1560 -0.9586 0.2384
vn -0.0497 -0.9972 0.0567
vt 0.888889 0.000000
vt 1.000000 0.000000
vt 1.000000 1.000000
vt 0.888889 1.000000
vt 0.000000 0.000000
vt 0.111111 0.000000
vt 0.111111 1.000000
vt 0.000000 1.000000
vt 0.222222 0.000000
vt 0.222222 1.000000
vt 0.333333 0.000000
vt 0.333333 1.000000
vt 0.444444 0.000000
vt 0.444444 1.000000
vt 0.555556 0.000000
vt 0.555556 1.000000
vt 0.666667 0.000000
vt 0.666667 1.000000
vt 0.777778 0.000000
vt 0.777778 1.000000
s 0
f 200/221/150 190/222/150 192/223/150 201/224/150
f 189/225/151 193/226/151 208/227/151 191/228/151
f 193/226/152 194/229/152 207/230/152 208/227/152
f 194/229/153 195/231/153 206/232/153 207/230/153
f 195/231/154 196/233/154 205/234/154 206/232/154
f 196/233/155 197/235/155 204/236/155 205/234/155
f 197/235/156 198/237/156 203/238/156 204/236/156
f 198/237/157 199/239/157 202/240/157 203/238/157
f 199/239/158 200/221/158 201/224/158 202/240/158
